<svg id="svg5" height="512" viewBox="0 0 26.458343 26.458329" width="512" xmlns="http://www.w3.org/2000/svg" xmlns:svg="http://www.w3.org/2000/svg"><g id="layer1" stroke-linecap="round" stroke-linejoin="round" transform="translate(-275.774 -211.901)"><path id="path1947" d="m287.6955 216.26695c-.0808-.001-.16141.008-.23978.0279-.23793.0599-.44237.21172-.56844.42219l-3.69796 6.16397h-3.44682c-.51101.00033-.92519.41451-.92553.92552v1.58802c.00005.51121.41431.9257.92553.92604h18.52187c.51121-.00034.92547-.41483.92552-.92604v-1.58802c-.00034-.51101-.41451-.92518-.92552-.92552h-3.44476l-3.69796-6.16397c-.12655-.21091-.33182-.36281-.57051-.42219-.23821-.0599-.49046-.0227-.70125.10335-.43882.26363-.58048.8333-.31626 1.27176l3.12746 5.21105h-7.31325l3.12746-5.21105c.26386-.43901.12123-1.00882-.31833-1.27176-.13962-.0835-.29879-.12881-.46147-.13126z"/><path id="path1949" d="m281.06593 227.11549c-.60231.00009-1.04428.56601-.89844 1.15039l1.32226 5.29101c.1032.41214.47358.7012.89844.70118h13.22852c.42486.00001.79523-.28905.89843-.70118l1.32422-5.29101c.14584-.58438-.29613-1.1503-.89843-1.15039z"/></g></svg>