<svg height="512" viewBox="0 0 427.844 445.747" width="512" xmlns="http://www.w3.org/2000/svg"><g fill="rgb(0,0,0)"><path d="m376.039 55.981c0 18.101-8.573 35.769-23.382 46.342-14.592 10.418-33.95 12.576-50.413 5.389-16.373-7.148-28.134-22.537-31.687-39.935-3.684-18.04 1.406-37.39 13.987-50.918 12.185-13.102 30.463-19.397 48.096-15.909 17.428 3.448 31.942 16.056 38.821 32.298 3.038 7.173 4.578 14.946 4.578 22.733z"/><path d="m407.603 199.733c-7.624-.24-15.247-.48-22.87-.72-12.328-.388-24.656-.776-36.984-1.164-2.986-.094-5.973-.188-8.959-.282-.397-.012-.359-.211-.522-.583-.454-1.04-.907-2.081-1.361-3.121-4.323-9.913-8.646-19.826-12.969-29.738-4.677-10.724-9.353-21.448-14.03-32.172-.946-2.17-1.892-4.339-2.839-6.509-3.798-8.708-11.537-15.266-20.767-17.532-2.915-.715-5.721-1.853-8.664-2.497-2.644-.579-5.315-.75-8.014-.675-1.148.032-2.296.063-3.445.095-2.447.068-4.893.135-7.34.203-10.341.285-20.682.571-31.023.856-13.099.361-26.198.723-39.296 1.084-10.449.288-20.899.577-31.348.865-6.817.188-14.355-.368-20.527 2.867-6.54 3.428-10.92 9.844-11.969 17.118-.362 2.509-.724 5.019-1.086 7.528-1.645 11.406-3.291 22.812-4.936 34.218-1.678 11.63-3.355 23.26-5.033 34.889-.402 2.789-.805 5.578-1.207 8.368-.943 6.539.929 13.137 5.521 17.966 6.436 6.768 16.913 8.397 25.111 3.933 5.775-3.145 9.346-8.62 10.663-14.962 1.998-9.621 3.996-19.242 5.993-28.862 2.198-10.585 4.396-21.171 6.594-31.756.154-.742.308-1.483.462-2.225.016-.075 1.806.136 1.932.147 4.781.413 9.561.827 14.342 1.24 11.131.962 22.261 1.924 33.392 2.886.187.016 1.633.079 1.584.221 7.916 1 15.971 1.238 23.928 1.772-.834.717-2.128 1.01-3.157 1.301-1.889.535-3.82.926-5.751 1.276-4.801.872-9.665 1.473-14.533 1.811-.557.039-1.113.073-1.671.102-.27.014-.539.027-.809.039-.404.018-.349.24-.479.591-.478 1.295-.962 2.587-1.452 3.878-1.001 2.639-2.026 5.268-3.07 7.89-2.227 5.591-4.544 11.146-6.957 16.66-4.538 10.366-9.46 20.553-14.911 30.47-4.745 8.632-9.834 17.067-14.724 25.616-2.841 4.967-5.617 9.971-8.304 15.023-.727 1.368-1.449 2.739-2.164 4.114-.226.435-.153.411 0 .826 0 .001-.003.005-.003.005-.011.018-.021.037-.032.055-.127.219-.254.439-.381.658-1.672 2.885-3.344 5.77-5.016 8.655-6.21 10.715-12.42 21.43-18.63 32.145-4.453 7.683-8.906 15.366-13.358 23.05-.168.289-.179.559-.511.487-.725-.157-1.451-.315-2.176-.472-3.445-.747-6.89-1.495-10.335-2.242-11.667-2.531-23.333-5.063-35-7.594-11.941-2.591-23.882-5.182-35.823-7.772-3.788-.822-7.576-1.644-11.363-2.465-2.53-.549-5.05-1.189-7.652-1.267-9.37-.282-18.212 5.375-21.871 14.007-3.574 8.432-1.727 18.419 4.636 25.008 4.828 4.999 11.775 6.716 18.129 8.953 9.904 3.487 19.809 6.975 29.713 10.462 12.372 4.356 24.745 8.713 37.117 13.069 10.27 3.616 20.54 7.232 30.81 10.848 2.918 1.028 5.837 2.055 8.755 3.083 2.827.995 5.626 1.912 8.64 2.227 9.574 1.001 19.232-3.055 25.166-10.644 1.511-1.933 2.887-3.987 4.316-5.983 5.758-8.039 11.515-16.079 17.273-24.118 7.353-10.268 14.707-20.535 22.06-30.803 3.098-4.326 6.196-8.651 9.294-12.977-4.101-2.091-8.115-4.38-11.977-6.885-1.537-.997-3.058-2.028-4.496-3.164-.827-.653-1.891-1.408-2.382-2.375 9.295 3.126 18.579 6.235 27.971 9.04 10.652 3.181 21.304 6.362 31.956 9.543 11.153 3.33 22.306 6.661 33.458 9.991 2.287.683 4.575 1.366 6.862 2.049.209.062.326.397.436.57.479.752.958 1.503 1.438 2.255 4.728 7.415 9.456 14.831 14.185 22.246 6.954 10.907 13.909 21.813 20.863 32.72 6.152 9.648 12.304 19.296 18.455 28.944 1.828 2.867 3.657 5.735 5.485 8.602 1.436 2.252 2.818 4.488 4.734 6.393 6.681 6.64 17.047 8.533 25.64 4.677 8.266-3.71 13.687-12.162 13.605-21.224-.06-6.668-3.659-12.632-6.466-18.489-4.47-9.328-8.94-18.655-13.409-27.983-5.664-11.82-11.329-23.64-16.993-35.461-4.901-10.227-9.801-20.453-14.702-30.68-2.179-4.546-4.357-9.093-6.536-13.639-1.875-3.912-4.739-7.333-8.266-9.859-2.533-1.814-5.375-2.956-8.219-4.166-2.617-1.113-5.233-2.226-7.85-3.339-11.338-4.822-22.675-9.644-34.013-14.467-3.447-1.466-6.894-2.932-10.342-4.399-.184-.078-.368-.157-.552-.235.004.002 2.392-5.781 2.6-6.29 2.049-5.01 4.064-10.034 6.08-15.057 3.168-7.892 6.758-15.748 8.997-23.945 1.778-6.507 3.425-13.049 5.107-19.581.468.809.545 1.898.644 2.804.179 1.627.229 3.268.247 4.904.046 4.266-.17 8.541-.548 12.79-.185 2.081-.414 4.159-.719 6.226-.128.872-.271 1.741-.435 2.607-.09.476-.417 1.134-.148 1.562 1.236 1.963 2.475 3.924 3.708 5.889 2.142 3.411 4.407 6.507 7.815 8.782 3.825 2.554 8.403 3.852 12.998 3.707 2.014-.063 4.028-.127 6.041-.19 11.163-.351 22.325-.703 33.488-1.054 11.9-.374 23.8-.749 35.7-1.123 2.935-.092 5.871-.185 8.806-.277 6.396-.201 12.379-2.934 16.389-8.001 4.899-6.191 5.866-14.866 2.445-21.984-3.349-6.978-10.471-11.621-18.209-11.864z"/></g></svg>