<svg viewBox="0 0 24 24" xmlns="http://www.w3.org/2000/svg"><g id="Layer_2" data-name="Layer 2"><path d="m8.34009 8.81-.59009.38v-3.44h5.5v3.44l-.6001-.38a.74291.74291 0 0 0 -.80981 0l-1.34009.86-1.3501-.86a.72.72 0 0 0 -.3999-.12.72933.72933 0 0 0 -.40991.12z"/><path d="m19.75 5.75v5.92a6.24806 6.24806 0 0 0 -8.08008 8.08h-8.66992a1.75844 1.75844 0 0 1 -1.75-1.75v-12.25h5v4.81a.75681.75681 0 0 0 .39014.66.767.767 0 0 0 .35986.09.7205.7205 0 0 0 .3999-.12l1.3501-.86 1.34009.86a.74319.74319 0 0 0 .80981 0l1.3501-.86 1.3501.86a.74042.74042 0 0 0 .75976.03.75681.75681 0 0 0 .39014-.66v-4.81z"/><path d="m19.31006 4.25h-17.62012l2.78006-2.78a.74915.74915 0 0 1 .53-.22h11a.74915.74915 0 0 1 .53.22z"/><path d="m17.5 12.25a5.25 5.25 0 1 0 5.25 5.25 5.25637 5.25637 0 0 0 -5.25-5.25zm2.57617 4.23047-2.5 3a.75032.75032 0 0 1 -.99219.14355l-1.5-1a.75.75 0 0 1 .832-1.248l.93945.626 2.06836-2.48242a.75022.75022 0 1 1 1.15234.96094z"/></g></svg>