<?xml version="1.0" encoding="iso-8859-1"?>
<!-- Generator: Adobe Illustrator 18.0.0, SVG Export Plug-In . SVG Version: 6.00 Build 0)  -->
<!DOCTYPE svg PUBLIC "-//W3C//DTD SVG 1.1//EN" "http://www.w3.org/Graphics/SVG/1.1/DTD/svg11.dtd">
<svg version="1.1" id="Capa_1" xmlns="http://www.w3.org/2000/svg" xmlns:xlink="http://www.w3.org/1999/xlink" x="0px" y="0px"
	 viewBox="0 0 281.475 281.475" style="enable-background:new 0 0 281.475 281.475;" xml:space="preserve">
<path d="M260.274,233.335l-39.359-49.946c-5.515-6.983-15.642-8.18-22.605-2.673l-15.174,11.958
	c-7.007,5.508-36.986,8.668-67.398-29.893c-30.397-38.564-20.79-66.63-13.822-72.136l15.171-11.964
	c6.985-5.495,8.188-15.619,2.688-22.609L80.405,6.133C74.897-0.852,64.767-2.045,57.77,3.454c0,0-15.44,12.213-15.577,12.331
	c-21.357,17.616-29.09,47.681-21.767,84.908c6.327,32.161,23.581,67.307,48.518,98.969c24.979,31.649,55.121,56.621,84.931,70.276
	c34.908,16.031,66.299,15.327,88.441-1.942c0.031-0.031,0.074-0.062,0.104-0.088l15.174-11.958
	C264.602,250.441,265.788,240.323,260.274,233.335z"/>
<g>
</g>
<g>
</g>
<g>
</g>
<g>
</g>
<g>
</g>
<g>
</g>
<g>
</g>
<g>
</g>
<g>
</g>
<g>
</g>
<g>
</g>
<g>
</g>
<g>
</g>
<g>
</g>
<g>
</g>
</svg>
