<svg height="511pt" viewBox="0 -41 511.99894 511" width="511pt" xmlns="http://www.w3.org/2000/svg"><path d="m185.105469 430.175781h141.339843c-31.769531-32.125-55.800781-69.292969-70.671874-109.046875-14.871094 39.746094-38.90625 76.925782-70.667969 109.046875zm0 0"/><path d="m500.878906 241.5625c-38.179687-10.230469-89.054687-42.015625-132.773437-82.960938-49.957031-46.785156-84.558594-98.992187-97.421875-147-1.816406-6.78125-8-11.203124-14.710938-11.101562-6.6875-.074219-12.847656 4.339844-14.660156 11.101562-12.863281 48.007813-47.460938 100.214844-97.417969 147-43.71875 40.945313-94.59375 72.730469-132.773437 82.960938-8 2.144531-12.75 10.371094-10.605469 18.371094 1.796875 6.703125 7.855469 11.121094 14.476563 11.121094 1.285156 0 2.59375-.167969 3.894531-.515626 7.71875-2.066406 15.792969-4.847656 24.117187-8.257812v152.894531c0 8.28125 6.714844 15 15 15h83.113282c.550781-.664062 1.15625-1.292969 1.835937-1.867187 53.929687-45.496094 88.601563-105.222656 97.777344-168.324219.15625-7.234375 5.527343-13.492187 12.929687-14.515625 7.375-1.007812 14.210938 3.515625 16.351563 10.390625.402343 1.195313.667969 2.449219.753906 3.742187 9.128906 63.511719 44.046875 123.570313 98.460937 169.234376.5.417968.953126.871093 1.382813 1.339843h77.386719c8.285156 0 15-6.714843 15-15v-155.433593c10.453125 4.597656 20.554687 8.238281 30.117187 10.796874 1.300781.351563 2.605469.515626 3.890625.515626 6.621094 0 12.683594-4.417969 14.480469-11.121094 2.144531-8-2.605469-16.226563-10.605469-18.371094zm0 0"/></svg>