<svg id="QR_Scan" enable-background="new 0 0 64 64" viewBox="0 0 64 64" xmlns="http://www.w3.org/2000/svg"><path d="m1.23075 12.8381c-.68028 0-1.23075-.55047-1.23075-1.23075v-10.376c0-.68028.55047-1.23075 1.23075-1.23075h10.37721c.68028 0 1.23075.55047 1.23075 1.23075s-.55047 1.23075-1.23075 1.23075h-9.14647v9.14526c0 .68027-.55047 1.23074-1.23074 1.23074zm62.76925-1.23075v-10.376c0-.68028-.55047-1.23075-1.23075-1.23075h-10.37721c-.68027 0-1.23074.55047-1.23074 1.23075s.55047 1.23075 1.23074 1.23075h9.14647v9.14526c0 .68028.55047 1.23075 1.23074 1.23075s1.23075-.55048 1.23075-1.23076zm0 51.1613v-10.3772c0-.68028-.55047-1.23075-1.23075-1.23075s-1.23074.55047-1.23074 1.23075v9.14646h-9.14647c-.68027 0-1.23074.55047-1.23074 1.23075s.55047 1.23074 1.23074 1.23074h10.37721c.68028 0 1.23075-.55047 1.23075-1.23075zm-51.1613 0c0-.68027-.55047-1.23075-1.23075-1.23075h-9.14646v-9.14646c0-.68028-.55047-1.23075-1.23075-1.23075s-1.23074.55048-1.23074 1.23076v10.37721c0 .68027.55047 1.23074 1.23075 1.23074h10.37721c.68027 0 1.23074-.55047 1.23074-1.23075zm42.03782-16.72078h-2.26105c-.79395 0-1.43756.64362-1.43756 1.43756v7.39736c0 .79395.64362 1.43756 1.43756 1.43756h2.26105c.79395 0 1.43756-.64362 1.43756-1.43756v-7.39736c0-.79394-.64362-1.43756-1.43756-1.43756zm0-10.27261h-2.26105c-.79395 0-1.43756.64362-1.43756 1.43756v2.26118c0 .79395.64362 1.43756 1.43756 1.43756h2.26105c.79395 0 1.43756-.64362 1.43756-1.43756v-2.26117c0-.79395-.64362-1.43757-1.43756-1.43757zm-5.13619 5.13631h-2.26118c-.79395 0-1.43756.64362-1.43756 1.43756v2.26117c0 .79395.64362 1.43756 1.43756 1.43756h2.26118c.79395 0 1.43756-.64362 1.43756-1.43756v-2.26117c.00001-.79394-.64361-1.43756-1.43756-1.43756zm-5.1363-5.13631h-7.39748c-.79395 0-1.43756.64362-1.43756 1.43756v7.39748c0 .79395.64362 1.43756 1.43756 1.43756h2.26117c.79395 0 1.43756-.64362 1.43756-1.43756v-2.26117c0-.79395.64362-1.43756 1.43756-1.43756h2.26117c.79395 0 1.43756-.64362 1.43756-1.43756v-2.26117c.00002-.79396-.6436-1.43758-1.43754-1.43758zm0 15.40892h-7.39748c-.79395 0-1.43756.64362-1.43756 1.43756v2.26105c0 .79395.64362 1.43756 1.43756 1.43756h7.39748c.79395 0 1.43756-.64362 1.43756-1.43756v-2.26105c0-.79394-.64362-1.43756-1.43756-1.43756zm-29.324-30.55418h5.34997v-5.35004h-5.34998v5.35004zm12.94995-11.51v17.66998c0 .78998-.64996 1.44-1.44 1.44h-17.66998c-.79999 0-1.44-.65002-1.44-1.44v-17.66998c0-.79999.64001-1.44 1.44-1.44h17.66998c.79004-.00001 1.44.64001 1.44 1.44zm-5.13995 5.47998c0-.98999-.80005-1.77997-1.78003-1.77997h-6.71002c-.97998 0-1.77997.78998-1.77997 1.77997v6.71002c0 .97998.79999 1.77997 1.77997 1.77997h6.71002c.97998 0 1.78003-.79999 1.78003-1.77997zm20.27997 6.03002h5.34998v-5.35004h-5.34998zm12.95001-11.51v17.66998c0 .78998-.64001 1.44-1.44 1.44h-17.66999c-.79004 0-1.44-.65002-1.44-1.44v-17.66998c0-.79999.64996-1.44 1.44-1.44h17.66998c.79999-.00001 1.44001.64001 1.44001 1.44zm-5.14002 5.47998c0-.98999-.79999-1.77997-1.77997-1.77997h-6.71002c-.97998 0-1.78003.78998-1.78003 1.77997v6.71002c0 .97998.80005 1.77997 1.78003 1.77997h6.71002c.97998 0 1.77997-.79999 1.77997-1.77997zm-35.89996 34.11999h5.34997v-5.34997h-5.34998v5.34997zm12.94995-11.51001v17.67004c0 .78998-.64996 1.44-1.44 1.44h-17.66998c-.79999 0-1.44-.65002-1.44-1.44v-17.67004c0-.78998.64001-1.44 1.44-1.44h17.66998c.79004 0 1.44.65002 1.44 1.44zm-5.13995 5.48004c0-.98004-.80005-1.78003-1.78003-1.78003h-6.71002c-.97998 0-1.77997.79999-1.77997 1.78003v6.70996c0 .98004.79999 1.78003 1.77997 1.78003h6.71002c.97998 0 1.78003-.79999 1.78003-1.78003z"/></svg>