<svg id="Capa_1" enable-background="new 0 0 512 512" viewBox="0 0 512 512" xmlns="http://www.w3.org/2000/svg"><g><path d="m116 302h280c8.284 0 15-6.716 15-15 0-24.853-20.147-45-45-45h-220c-24.853 0-45 20.147-45 45 0 8.284 6.716 15 15 15z"/><path d="m497 222c-8.284 0-15 6.716-15 15v135h-85c-19.33 0-35 15.67-35 35v90c0 8.284 6.716 15 15 15s15-6.716 15-15v-55h90v55c0 8.284 6.716 15 15 15s15-6.716 15-15v-260c0-8.284-6.716-15-15-15z"/><path d="m296 482h-25v-150h-30v150h-25c-8.284 0-15 6.716-15 15s6.716 15 15 15h80c8.284 0 15-6.716 15-15s-6.716-15-15-15z"/><path d="m256 180c49.706 0 90-40.294 90-90s-40.294-90-90-90-90 40.294-90 90 40.294 90 90 90zm-15-120c0-8.284 6.716-15 15-15s15 6.716 15 15v15h5c8.284 0 15 6.716 15 15s-6.716 15-15 15h-20c-8.284 0-15-6.716-15-15z"/><path d="m115 372h-85v-135c0-8.284-6.716-15-15-15s-15 6.716-15 15v260c0 8.284 6.716 15 15 15s15-6.716 15-15v-55h90v55c0 8.284 6.716 15 15 15s15-6.716 15-15v-90c0-19.33-15.67-35-35-35z"/></g><g/><g/><g/><g/><g/><g/><g/><g/><g/><g/><g/><g/><g/><g/><g/></svg>