<svg clip-rule="evenodd" fill-rule="evenodd" height="512" image-rendering="optimizeQuality" shape-rendering="geometricPrecision" text-rendering="geometricPrecision" viewBox="0 0 846.66 846.66" width="512" xmlns="http://www.w3.org/2000/svg"><g id="Layer_x0020_1"><path d="m708.21 500.69c1.38-71.05-55.44-129.19-127.12-128.02-69.42 1.12-116.59 54.64-122.63 113.56-7.57 73.7 51.51 137.3 125.1 136.98 68.75-.3 123.33-54.92 124.65-122.52zm-73-62.31c18.63-19.16 47.77 9.11 29.12 28.33l-87.86 90.78c-7.82 8.04-20.68 8.22-28.73.4l-45.39-43.93c-19.16-18.6 9.1-47.79 28.33-29.13l30.76 29.77zm-627.62-268.37c0-11.25 9.13-20.37 20.38-20.37h109.03c-.09-.78-.14-1.57-.14-2.37 0-84.62 127.95-84.63 127.95 0v2.37h216.24c-.09-.78-.13-1.57-.13-2.37 0-84.62 127.94-84.63 127.94 0v2.37h93.37c11.25 0 20.37 9.12 20.37 20.37v237.99c17.09 26.46 25.91 56.78 26.4 87.24.53 32.17-8.25 64.5-26.4 92.6v16.8l110.08 106.55c19.16 18.59-9.1 47.78-28.33 29.12l-81.75-79.12v81.3c0 11.25-9.12 20.37-20.37 20.37h-674.26c-11.25 0-20.38-9.12-20.38-20.37v-572.48zm674.26 194.57v-45.29h-633.51v402.82h633.51v-90.8c-13.97 10.36-29.21 18.25-45.14 23.67 7.84 13.41-1.76 30.64-17.6 30.64h-36.02c-12.3 0-21.79-10.83-20.2-23.04-129.23-15.78-190.46-168.4-108.6-269.14-17.22-10.8-9.63-37.66 10.8-37.66h32.45c25.41-15.31 54.09-23.23 82.91-23.7 35.59-.59 71.36 10.22 101.4 32.5zm-216.76 321.04c-26.83 0-26.83-40.75 0-40.75h36.01c26.83 0 26.83 40.75 0 40.75zm-118.01 0c-26.82 0-26.82-40.75 0-40.75h36.02c26.82 0 26.82 40.75 0 40.75zm0-72.27c-26.82 0-26.82-40.75 0-40.75h36.02c26.82 0 26.82 40.75 0 40.75zm0-72.27c-26.82 0-26.82-40.75 0-40.75h36.02c26.82 0 26.82 40.75 0 40.75zm0-72.28c-26.82 0-26.82-40.74 0-40.74h36.02c26.82 0 26.82 40.74 0 40.74zm0-72.27c-26.82 0-26.82-40.75 0-40.75h36.02c26.82 0 26.82 40.75 0 40.75zm-118 289.09c-26.82 0-26.82-40.75 0-40.75h36.02c26.82 0 26.82 40.75 0 40.75zm0-72.27c-26.82 0-26.82-40.75 0-40.75h36.02c26.82 0 26.82 40.75 0 40.75zm0-72.27c-26.82 0-26.82-40.75 0-40.75h36.02c26.82 0 26.82 40.75 0 40.75zm0-72.28c-26.82 0-26.82-40.74 0-40.74h36.02c26.82 0 26.82 40.74 0 40.74zm0-72.27c-26.82 0-26.82-40.75 0-40.75h36.02c26.82 0 26.82 40.75 0 40.75zm-118 289.09c-26.82 0-26.82-40.75 0-40.75h36.02c26.82 0 26.82 40.75 0 40.75zm0-72.27c-26.82 0-26.82-40.75 0-40.75h36.02c26.82 0 26.82 40.75 0 40.75zm0-72.27c-26.82 0-26.82-40.75 0-40.75h36.02c26.82 0 26.82 40.75 0 40.75zm0-72.28c-26.82 0-26.82-40.74 0-40.74h36.02c26.82 0 26.82 40.74 0 40.74zm0-72.27c-26.82 0-26.82-40.75 0-40.75h36.02c26.82 0 26.82 40.75 0 40.75zm66.39-246.89h46.59v-2.37c0-30.72-46.45-30.72-46.45 0 0 .8-.05 1.59-.14 2.37zm87.34 40.75v23.7h303.31v-23.7zm-40.75 23.7v-23.7h-175.72v88.15h633.51v-88.15h-72.99v23.7h38.39c26.83 0 26.83 40.75 0 40.75-188.1 0-376.21 0-564.31 0-26.82 0-26.82-40.75 0-40.75zm297.47-64.45h46.59v-2.37c0-30.72-46.46-30.72-46.46 0 0 .8-.04 1.59-.13 2.37z" fill-rule="nonzero"/></g></svg>