<?xml version="1.0"?>
<svg xmlns="http://www.w3.org/2000/svg" viewBox="0 0 100 100" width="512" height="512"><g id="shopping_cart" data-name="shopping cart"><path d="M92.19,40.53a7.1,7.1,0,0,0-7.17-7H71.75L60.55,14.12a4.82,4.82,0,0,0-4.17-2.41,4.83,4.83,0,0,0-4.67,3.57A4.82,4.82,0,0,0,52.2,19l8.41,14.56H39.39L47.8,19h0A4.83,4.83,0,0,0,46,12.36a4.75,4.75,0,0,0-2.42-.64,4.82,4.82,0,0,0-4.17,2.4L28.25,33.51H15a7.23,7.23,0,0,0-5.06,2,6.87,6.87,0,0,0-2.12,5,7.06,7.06,0,0,0,5.93,6.89l9.57,36a6.39,6.39,0,0,0,6,4.9H70.65a6.39,6.39,0,0,0,6-4.9l9.57-36a7.17,7.17,0,0,0,3.81-1.92A6.87,6.87,0,0,0,92.19,40.53ZM54.8,17.46a1.84,1.84,0,0,1-.19-1.4A1.8,1.8,0,0,1,55.47,15a1.88,1.88,0,0,1,2.49.66L68.28,33.51H64.07ZM42.05,15.62A1.87,1.87,0,0,1,44.54,15a1.8,1.8,0,0,1,.85,1.1,1.84,1.84,0,0,1-.18,1.4L35.93,33.51H31.72Zm31.74,67a3.4,3.4,0,0,1-3.14,2.67H29.35a3.4,3.4,0,0,1-3.14-2.67L16.87,47.53H83.13ZM88,43.35a4.23,4.23,0,0,1-3,1.19H15a4.1,4.1,0,0,1-4.18-4A3.9,3.9,0,0,1,12,37.71a4.24,4.24,0,0,1,3-1.2H85a4.1,4.1,0,0,1,4.17,4A3.9,3.9,0,0,1,88,43.35ZM33,78.23h.33A4.67,4.67,0,0,0,38,73.57v-12a4.67,4.67,0,0,0-4.66-4.66H33a4.67,4.67,0,0,0-4.66,4.66v12A4.67,4.67,0,0,0,33,78.23ZM31.34,61.59A1.66,1.66,0,0,1,33,59.93h.33A1.66,1.66,0,0,1,35,61.59v12a1.66,1.66,0,0,1-1.66,1.66H33a1.66,1.66,0,0,1-1.66-1.66ZM66.67,78.23H67a4.67,4.67,0,0,0,4.66-4.66v-12A4.67,4.67,0,0,0,67,56.93h-.33A4.67,4.67,0,0,0,62,61.59v12A4.67,4.67,0,0,0,66.67,78.23ZM65,61.59a1.66,1.66,0,0,1,1.66-1.66H67a1.66,1.66,0,0,1,1.66,1.66v12A1.66,1.66,0,0,1,67,75.23h-.33A1.66,1.66,0,0,1,65,73.57ZM49.83,78.23h.33a4.67,4.67,0,0,0,4.66-4.66v-12a4.67,4.67,0,0,0-4.66-4.66h-.33a4.67,4.67,0,0,0-4.66,4.66v12A4.67,4.67,0,0,0,49.83,78.23ZM48.17,61.59a1.66,1.66,0,0,1,1.66-1.66h.33a1.66,1.66,0,0,1,1.66,1.66v12a1.66,1.66,0,0,1-1.66,1.66h-.33a1.66,1.66,0,0,1-1.66-1.66Z"/></g></svg>
