<?xml version="1.0" encoding="UTF-8"?>
<svg id="Layer_1" data-name="Layer 1" xmlns="http://www.w3.org/2000/svg" viewBox="0 0 868.06 524.37">
  <defs>
    <style>
      .cls-1 {
        fill: #032852;
      }

      .cls-2 {
        fill: #052c52;
      }
    </style>
  </defs>
  <g>
    <path class="cls-1" d="M468.39,79.46c15.27,22.52,23.77,47.58,27.12,74.5,6.17,49.65-10.17,98.62-43.7,135.71-37.67,41.67-88.95,62.25-145.24,56.43-15-1.55-28.68-5.51-42.67-10.78-25.83-9.72-49.85-26.61-68.1-47.3-25.17-28.53-40.34-63.8-42.69-102.05-1.42-23.21.65-45.7,8.21-67.61,4.89-14.18,11.1-27.34,19.5-39.74,9.15-13.52,19.51-25.69,31.88-36.41,53.87-46.72,133.79-56.28,196-19.39-15.7,11.67-27.03,24.21-37.79,39.05-10.99-5.3-22.45-7.87-34.41-9.1-35.07-3.21-69.06,9.33-94.7,33.46-44.58,43.09-49.72,111.34-12.04,160.61,10.43,13.64,23.76,24.33,38.8,32.66,30.55,16.94,66.52,20.11,99.04,7.4,16.97-6.64,30.89-16.93,43.34-29.95,17.57-18.37,29.26-40.73,32.77-66.03,3.69-26.62-.75-52.38-14.12-75.56,0,0,7.67-12.23,15.93-19.91,7.08-6.59,17.32-13.77,22.84-15.99Z"/>
    <path class="cls-1" d="M638.62,157.4c-7.81-57.14-54.85-100.54-111.85-104.86-74.5-5.64-134.5,59.79-127.78,133.39,1.52,16.64,6.16,30.9,14.85,45.4-8.88,15.74-20.65,26.32-38.65,36.39-40.36-61.17-36.61-142.74,7.61-200.45l15.58-17.46c13.03-12.8,27.97-23.8,44.15-31.87,69.92-34.83,153.75-17.65,205.73,40.24,44.49,49.55,56.21,124.14,28.34,185.01-23.58,51.51-69.41,88.44-125.16,99.91-39.71,8.55-83.2.75-118.36-19.63,16.18-11.8,28.49-23.83,39.54-38.8,31.87,13.19,68.22,12.54,98.65-3.36,15.92-7.17,28.59-17.78,39.91-31.06,21.71-25.46,32.11-58.69,27.44-92.85Z"/>
  </g>
  <g>
    <path class="cls-2" d="M95.96,523.77l-45.97.07c-25.22-.92-45.96-20.86-49.26-45.54L.02,457.76c-.85-24.46,21.6-52.54,49.91-52.49l45.35.09c23.66.05,43.99,18.97,47.89,42.11,3.26,19.4,1.45,43.35-11.54,58.07-9.16,10.38-21.27,18.21-35.67,18.23ZM93.83,497.59c11.73-.09,21.27-9.52,22.96-20.77,1.24-8.27,1.1-16.38.27-24.74-1.15-11.54-10.92-20.87-22.64-20.86l-45.85.04c-13.16,2.71-21.93,12.32-21.8,25.63l.16,15.65c.15,14.48,11.95,25.45,26.25,25.35l40.65-.3Z"/>
    <path class="cls-2" d="M536.98,523.35l-49.93.29c-24.93.15-45.52-20.77-47.74-45.23-.87-9.64-.94-17.81.02-27.54,2.2-22.46,20.42-42.99,43.57-44.91,17.68-1.46,34.33-.99,52.05-.09,21.63,1.09,40.12,17.92,45.26,38.36,2.33,9.26,1.55,17.25,1.73,26.79.47,25.6-17.94,50.32-44.94,52.33ZM535.08,497.86c11.31-2.45,19.61-11.16,20.58-22.61.65-7.67.44-15.46-.43-23.19-1.33-11.93-10.87-20.5-22.91-20.53l-46.74-.13c-10.46,2.01-19.01,9.01-20.28,20.05-1.05,9.08-1.33,18.87.24,28.13,1.86,11,13.19,18.23,23.91,18.24l45.63.04Z"/>
    <path class="cls-2" d="M387.18,523.66l-72.12.07c-6.6,0-13.76-4.38-14.73-10.91-.86-5.81,3.27-13.03,8.27-15.43l36.07.54,41.13.04c6.63,0,11.34-3.83,11.44-10.75.08-5.51-3.6-10.51-9.9-10.57l-45.98-.41c-12.86-.11-24.95-4.12-33.46-13.93-6.43-7.42-8.55-16.83-7.46-26.83,1.82-16.63,15.98-29.95,33.29-29.98l71.81-.13c3.91,0,7.81,1.59,9.86,4.2,6.49,8.27-1,21.38-6.8,21.28l-17.91-.29-57.91.28c-5.53.03-8.87,6.81-8.67,10.68.28,5.4,4.81,9.62,10.73,9.67l48.49.43c15.04.13,29.2,7.61,35.63,21.5,4.73,10.22,4.18,22.71-1.74,32.57s-17.54,17.94-30.07,17.95Z"/>
    <path class="cls-2" d="M169.79,523.88c-4.97,0-8.45-2.74-9.63-6.86-1.67-5.77-2.41-12.6.01-18.44,1.63-3.94,5.89-6.9,9.26-9.5l36.27-27.91,27.07-20.68,11.01-9.2-39.09.12-38.53-.37c-5.16-.05-7.66-5.9-8.61-10.42-1.25-5.93,1.95-14.94,9.31-14.95l101.16-.18c5.87-.01,10.41,3.15,12.81,8.23,4.44,9.44,1.09,19.34-7.22,25.79l-75.57,58.61,74.9.1c2.56,0,5.13,1.33,6.92,2.8,2.99,4.8,4.04,10.14,2.68,15.45s-5.29,7.43-10.41,7.43h-102.35Z"/>
    <path class="cls-2" d="M626.03,454.8l-.08,61.22c0,5.68-7.29,8.27-11.93,8.3-3.75.02-6.9-.71-9.21-2.79-2.58-2.31-3.37-5.76-3.35-9.53l.24-61.73c.09-23.02,21.35-44.96,46.63-44.93l69.72.08c6.46,0,9.08,7.34,9.04,12.81-.04,4.7-2.16,12.62-8.2,12.64l-69.48.2c-13.42.04-23.35,9.92-23.37,23.73Z"/>
    <path class="cls-2" d="M867.2,424.76c-1.67,5.42-6.69,6.48-11.37,6.47l-102.67-.19c-7.78-.01-12.76-4.91-12.57-13.01.07-3.15.64-6.56,2.72-9.06,1.97-2.35,5.36-3.72,9.13-3.72l105.65-.09c5.2,0,9.22,3.65,9.75,8.52.36,3.31.39,7.75-.64,11.07Z"/>
    <path class="cls-2" d="M810.28,523.85c-4.59,1.17-9.63.29-13.93-1.64-2.33-2.72-3.65-5.77-3.65-9.47v-70.49c0-2.68,2.36-6.46,4.91-6.45l14.17.09c3.77.02,6.05,3.48,6.05,7.23l.07,68.87c0,5.41-1.25,10.24-7.62,11.87Z"/>
    <path class="cls-2" d="M641,476.16c-6.59,0-10.07-8.82-9.09-13.61,1.36-6.64,6.24-11.05,13.26-11.02l56.1.26c5.97.03,9.11,7.48,9.26,12.07.16,5-3.54,12.31-9.68,12.31h-59.85Z"/>
  </g>
</svg>