<?xml version="1.0" encoding="UTF-8"?>
<svg id="Layer_1" data-name="Layer 1" xmlns="http://www.w3.org/2000/svg" viewBox="0 0 2152.29 470.1">
  <defs>
    <style>
      .cls-1 {
        fill: #fff;
      }
    </style>
  </defs>
  <g>
    <path class="cls-1" d="M363.25,311.33c-14.51,24.84-32.59,42.06-57.35,56.7-23.94-14.25-42.99-33.14-57.6-56.29-6.95-11.01-11.15-22.62-15.3-34.91-6.75-20-8.78-47.87-6.91-69,3-33.83,17.98-66.58,40.57-91.79,7.54-8.42,15.14-16.02,24.46-22.51l14.54-10.12c5.93,3.85,10.89,6.99,16.07,10.88,32.18,24.14,56.4,63.62,61.96,103.37l1.3,9.3c2.44,17.45,1.96,26.4-.6,44.19-2.51,17.43-6.53,30.39-13.42,46.49-2.11,4.93-5.06,9.14-7.72,13.7Z"/>
    <path class="cls-1" d="M470.31,368.43c-32.68-20.25-50.86-42.21-66.13-76.33-9.04-20.21-16.49-57.89-13.4-79.18,5.08-35.02,13.16-61.36,34.81-89.65,9.48-12.38,29.34-31.71,43.78-38.95,24.73,13.02,43.71,32.42,58.03,55.86,15.66,25.63,22.76,53.51,23.43,83.57.74,33.5-7.41,65.01-25.69,93.04-10.21,15.65-22.3,28.91-37.51,39.85l-17.33,11.79Z"/>
    <path class="cls-1" d="M250.45,337.17c11.35,14.36,24.55,26.34,40.63,37.18-19.44,10.1-39.76,13.21-60.54,12.95-6.95.01-13.35-.49-20.1-1.51-22.06-2.22-51.83-15.62-68.79-29.19-10.29-8.23-19.95-16.27-28.1-26.65-24.29-30.91-38.87-75.07-35.25-114.28,1.59-17.27,1.85-20.72,6.63-37.34,12.67-44.01,43.57-81.82,85.62-100.43,18.7-8.28,16.2-7.84,38.23-11.87,25.48-4.65,57.51-1.14,81.5,10.4l-13.94,11.54c-7.52,6.23-15.24,13.55-21.11,21.32-3.21,4.25-4.3,5.02-9.73,4.36-10.94-1.33-26.07-1.11-37.22,1.87-22.92,6.14-42.73,19.75-57.31,38.53-14.94,19.25-22.06,42.38-23.76,66.48-.48,6.74.61,19.39,1.62,26.41,3.28,22.77,13.13,43.36,29.48,59.73,16.14,16.15,33.71,26.45,56.35,30.86l35.78-.36Z"/>
    <path class="cls-1" d="M594.73,378.72c-33.34,12.14-77.35,12.77-108.68-4.51,15.5-10.25,28.58-21.81,39.66-36.43,13.46-.04,26.83,1.65,40.14-1.02,14.73-2.96,27.71-9.98,39.75-18.76,16.06-11.73,27.48-28.12,34.54-46.54,11.98-31.23,10.96-64.52-2.08-94.9-11.93-27.78-31.22-46.01-59.12-57.66-16.45-6.87-34.25-7.3-52.27-4.18l-14.63-15.92c-7.83-8.52-16.85-14.43-26.57-22.19,12.25-7.37,31.57-10.13,45.98-11.9,13.87-1.7,34.84.03,48.38,3.57,75.97,19.88,118.82,87.31,118.05,163.52-.06,6.04-1.23,11.77-1.95,17.56-2.29,18.53-8.66,39.7-17.69,55.94-6.85,12.33-14.67,24.18-24.65,34.18-17.81,17.82-34.87,30.5-58.86,39.23Z"/>
    <path class="cls-1" d="M409.82,113.86c-15.52-3.11-31.44-2.3-47,1.07-7.03-7.65-13.54-15.22-21.21-21.92l-19.02-16.61c18.21-11.51,59.92-16.16,79.07-13.91l18.32,2.15c3.56.42,31.46,7.91,34.62,12.02-13.44,11.1-25.69,20.96-35.94,33.69-1.01,1.25-2.66,3.55-3.87,4.11-1.13.52-3.2-.24-4.96-.6Z"/>
    <path class="cls-1" d="M415.09,337.2c14.08,16.5,22.38,24.12,40.57,37.4-39.06,20.28-95.68,19.5-134.02-.56,15.74-11.33,29-22.23,39.88-37.02l14.06,2.05c8.37.16,16.74,1.01,25.2-.06l14.31-1.81Z"/>
  </g>
  <g>
    <g>
      <path class="cls-1" d="M867.91,61.6c67.9,0,117.32,48.41,117.32,115.97s-49.41,115.97-117.32,115.97-116.98-48.41-116.98-115.97,49.41-115.97,116.98-115.97ZM867.91,103.96c-41.35,0-67.9,31.6-67.9,73.62s26.56,73.62,67.9,73.62,68.24-31.93,68.24-73.62-26.89-73.62-68.24-73.62Z"/>
      <path class="cls-1" d="M1017.16,289.51v-38.66l105.89-143.54h-105.89v-42.02h168.41v38.32l-105.89,143.87h108.24v42.02h-170.77Z"/>
      <path class="cls-1" d="M1246.08,221.61c15.8,16.47,40.34,30.25,71.26,30.25,26.22,0,38.99-12.44,38.99-25.21,0-16.81-19.5-22.52-45.38-28.57-36.64-8.4-83.7-18.49-83.7-68.57,0-37.31,32.27-67.57,85.05-67.57,35.63,0,65.21,10.76,87.4,31.26l-26.56,34.96c-18.15-16.81-42.35-24.54-64.21-24.54s-32.94,9.41-32.94,22.86c0,15.13,18.82,19.83,44.71,25.88,36.98,8.4,84.04,19.5,84.04,69.25,0,41.01-29.25,71.94-89.75,71.94-43.03,0-73.95-14.45-95.13-35.63l26.22-36.3Z"/>
      <path class="cls-1" d="M1554.33,61.6c67.9,0,117.32,48.41,117.32,115.97s-49.41,115.97-117.32,115.97-116.98-48.41-116.98-115.97,49.42-115.97,116.98-115.97ZM1554.33,103.96c-41.35,0-67.9,31.6-67.9,73.62s26.56,73.62,67.9,73.62,68.24-31.93,68.24-73.62-26.89-73.62-68.24-73.62Z"/>
      <path class="cls-1" d="M1716.35,289.51V65.3h158.66v41.01h-110.93v48.74h108.58v41.01h-108.58v93.45h-47.73Z"/>
      <path class="cls-1" d="M1971.16,289.51V107.32h-65.55v-42.02h178.83v42.02h-65.21v182.19h-48.07Z"/>
    </g>
    <g>
      <path class="cls-1" d="M755.49,324.36c0-1.19.41-2.2,1.23-3.02.82-.82,1.82-1.23,3.02-1.23s2.2.41,3.02,1.23c.82.82,1.23,1.83,1.23,3.02s-.41,2.2-1.23,3.02c-.82.82-1.83,1.23-3.02,1.23s-2.2-.41-3.02-1.23c-.82-.82-1.23-1.82-1.23-3.02ZM756.91,341.64h5.66v43.62h-5.66v-43.62Z"/>
      <path class="cls-1" d="M783.34,353.91c0-.82-.03-1.81-.09-2.97-.06-1.16-.11-2.34-.14-3.54-.03-1.19-.08-2.31-.14-3.35-.06-1.04-.09-1.84-.09-2.41h5.66c.06,1.64.11,3.21.14,4.72.03,1.51.11,2.49.24,2.93h.28c1.13-2.39,3.02-4.45,5.66-6.18,2.64-1.73,5.73-2.6,9.25-2.6s6.17.54,8.31,1.6c2.14,1.07,3.82,2.47,5.05,4.2,1.23,1.73,2.08,3.73,2.55,5.99.47,2.27.71,4.6.71,6.99v25.96h-5.66v-25.68c0-1.76-.16-3.48-.47-5.15-.32-1.67-.87-3.16-1.65-4.48-.79-1.32-1.89-2.38-3.3-3.16-1.42-.79-3.26-1.18-5.52-1.18-2.08,0-4.04.36-5.9,1.09-1.86.72-3.46,1.83-4.81,3.3-1.35,1.48-2.42,3.34-3.21,5.57-.79,2.23-1.18,4.86-1.18,7.88v21.81h-5.66v-31.34Z"/>
      <path class="cls-1" d="M861.89,346.74h-12.46v28.42c0,1.95.53,3.46,1.6,4.53,1.07,1.07,2.55,1.6,4.44,1.6,1.07,0,2.16-.14,3.26-.42,1.1-.28,2.15-.64,3.16-1.09l.47,5.1c-1.07.38-2.3.72-3.68,1.04-1.39.31-2.61.47-3.68.47-2.02,0-3.75-.3-5.19-.9-1.45-.6-2.61-1.4-3.49-2.41-.88-1.01-1.53-2.19-1.94-3.54-.41-1.35-.61-2.82-.61-4.39v-28.42h-9.44v-5.1h9.44v-12.56h5.66v12.56h12.46v5.1Z"/>
      <path class="cls-1" d="M915.23,377.04c-2.2,3.34-4.93,5.73-8.17,7.17-3.24,1.45-6.81,2.17-10.72,2.17-3.34,0-6.36-.57-9.06-1.7-2.71-1.13-5.04-2.72-6.99-4.77-1.95-2.04-3.45-4.47-4.48-7.27-1.04-2.8-1.56-5.9-1.56-9.3s.53-6.29,1.6-9.06c1.07-2.77,2.58-5.18,4.53-7.22,1.95-2.04,4.25-3.65,6.89-4.81,2.64-1.16,5.57-1.75,8.78-1.75s6.28.58,8.83,1.75c2.55,1.17,4.69,2.71,6.42,4.63,1.73,1.92,3.04,4.11,3.92,6.56.88,2.46,1.32,4.94,1.32,7.46v3.97h-36.63c0,1.2.24,2.72.71,4.58.47,1.86,1.34,3.67,2.6,5.43,1.26,1.76,2.94,3.27,5.05,4.53,2.11,1.26,4.83,1.89,8.17,1.89,2.89,0,5.7-.69,8.4-2.08,2.71-1.38,4.78-3.27,6.23-5.66l4.15,3.49ZM910.89,359.77c0-1.95-.39-3.78-1.18-5.48-.79-1.7-1.86-3.19-3.21-4.48-1.35-1.29-2.96-2.31-4.81-3.07-1.86-.76-3.82-1.13-5.9-1.13-3.08,0-5.65.63-7.69,1.89-2.05,1.26-3.67,2.71-4.86,4.34-1.2,1.64-2.05,3.23-2.55,4.77-.5,1.54-.76,2.6-.76,3.16h30.97Z"/>
      <path class="cls-1" d="M934.87,313.88h5.66v71.37h-5.66v-71.37Z"/>
      <path class="cls-1" d="M962.34,313.88h5.66v71.37h-5.66v-71.37Z"/>
      <path class="cls-1" d="M988.4,324.36c0-1.19.41-2.2,1.23-3.02.82-.82,1.82-1.23,3.02-1.23s2.2.41,3.02,1.23c.82.82,1.23,1.83,1.23,3.02s-.41,2.2-1.23,3.02c-.82.82-1.83,1.23-3.02,1.23s-2.2-.41-3.02-1.23c-.82-.82-1.23-1.82-1.23-3.02ZM989.82,341.64h5.66v43.62h-5.66v-43.62Z"/>
      <path class="cls-1" d="M1060.06,382.42c0,5.41-.79,9.79-2.36,13.12-1.57,3.34-3.54,5.92-5.9,7.74-2.36,1.82-4.89,3.05-7.6,3.68-2.71.63-5.16.94-7.36.94s-4.36-.21-6.47-.61c-2.11-.41-4.11-1.01-6-1.79-1.89-.79-3.6-1.75-5.15-2.88-1.54-1.13-2.88-2.42-4.01-3.87l4.44-4.15c2.01,2.83,4.53,4.91,7.55,6.23,3.02,1.32,6.23,1.98,9.63,1.98,2.89,0,5.33-.38,7.32-1.13,1.98-.76,3.62-1.75,4.91-2.97,1.29-1.23,2.3-2.58,3.02-4.06.72-1.48,1.26-2.96,1.6-4.44.35-1.48.55-2.88.61-4.2.06-1.32.09-2.39.09-3.21v-6.04h-.19c-1.64,2.64-3.86,4.72-6.66,6.23-2.8,1.51-6.09,2.27-9.87,2.27-3.21,0-6.23-.58-9.06-1.75-2.83-1.16-5.3-2.77-7.41-4.81-2.11-2.04-3.78-4.42-5-7.13-1.23-2.71-1.84-5.6-1.84-8.69s.61-5.98,1.84-8.69c1.23-2.71,2.89-5.07,5-7.08,2.11-2.01,4.58-3.62,7.41-4.81,2.83-1.19,5.85-1.79,9.06-1.79,3.78,0,7.06.75,9.87,2.27,2.8,1.51,5.02,3.59,6.66,6.23h.19v-7.36h5.66v40.78ZM1054.58,362.88c0-2.39-.46-4.64-1.37-6.75-.91-2.11-2.14-3.93-3.68-5.48-1.54-1.54-3.37-2.77-5.48-3.68-2.11-.91-4.36-1.37-6.75-1.37s-4.64.46-6.75,1.37c-2.11.91-3.93,2.14-5.48,3.68s-2.77,3.37-3.68,5.48c-.91,2.11-1.37,4.36-1.37,6.75s.46,4.64,1.37,6.75c.91,2.11,2.14,3.93,3.68,5.48,1.54,1.54,3.37,2.77,5.48,3.68,2.11.91,4.36,1.37,6.75,1.37s4.64-.46,6.75-1.37c2.11-.91,3.93-2.14,5.48-3.68s2.77-3.37,3.68-5.48c.91-2.11,1.37-4.36,1.37-6.75Z"/>
      <path class="cls-1" d="M1117.17,377.04c-2.2,3.34-4.93,5.73-8.17,7.17-3.24,1.45-6.81,2.17-10.72,2.17-3.34,0-6.36-.57-9.06-1.7-2.71-1.13-5.04-2.72-6.99-4.77-1.95-2.04-3.45-4.47-4.48-7.27-1.04-2.8-1.56-5.9-1.56-9.3s.53-6.29,1.6-9.06c1.07-2.77,2.58-5.18,4.53-7.22,1.95-2.04,4.25-3.65,6.89-4.81,2.64-1.16,5.57-1.75,8.78-1.75s6.28.58,8.83,1.75c2.55,1.17,4.69,2.71,6.42,4.63,1.73,1.92,3.04,4.11,3.92,6.56.88,2.46,1.32,4.94,1.32,7.46v3.97h-36.63c0,1.2.24,2.72.71,4.58.47,1.86,1.34,3.67,2.6,5.43,1.26,1.76,2.94,3.27,5.05,4.53,2.11,1.26,4.83,1.89,8.17,1.89,2.89,0,5.7-.69,8.4-2.08,2.71-1.38,4.78-3.27,6.23-5.66l4.15,3.49ZM1112.83,359.77c0-1.95-.39-3.78-1.18-5.48-.79-1.7-1.86-3.19-3.21-4.48-1.35-1.29-2.96-2.31-4.81-3.07-1.86-.76-3.82-1.13-5.9-1.13-3.08,0-5.65.63-7.69,1.89-2.05,1.26-3.67,2.71-4.86,4.34-1.2,1.64-2.05,3.23-2.55,4.77-.5,1.54-.76,2.6-.76,3.16h30.97Z"/>
      <path class="cls-1" d="M1135.87,353.91c0-.82-.03-1.81-.09-2.97-.06-1.16-.11-2.34-.14-3.54-.03-1.19-.08-2.31-.14-3.35-.06-1.04-.09-1.84-.09-2.41h5.66c.06,1.64.11,3.21.14,4.72.03,1.51.11,2.49.24,2.93h.28c1.13-2.39,3.02-4.45,5.66-6.18,2.64-1.73,5.73-2.6,9.25-2.6s6.17.54,8.31,1.6c2.14,1.07,3.82,2.47,5.05,4.2,1.23,1.73,2.08,3.73,2.55,5.99.47,2.27.71,4.6.71,6.99v25.96h-5.66v-25.68c0-1.76-.16-3.48-.47-5.15-.32-1.67-.87-3.16-1.65-4.48-.79-1.32-1.89-2.38-3.3-3.16-1.42-.79-3.26-1.18-5.52-1.18-2.08,0-4.04.36-5.9,1.09-1.86.72-3.46,1.83-4.81,3.3-1.35,1.48-2.42,3.34-3.21,5.57-.79,2.23-1.18,4.86-1.18,7.88v21.81h-5.66v-31.34Z"/>
      <path class="cls-1" d="M1214.41,346.74h-12.46v28.42c0,1.95.53,3.46,1.6,4.53,1.07,1.07,2.55,1.6,4.44,1.6,1.07,0,2.16-.14,3.26-.42,1.1-.28,2.15-.64,3.16-1.09l.47,5.1c-1.07.38-2.3.72-3.68,1.04-1.39.31-2.61.47-3.68.47-2.02,0-3.75-.3-5.19-.9-1.45-.6-2.61-1.4-3.49-2.41-.88-1.01-1.53-2.19-1.94-3.54-.41-1.35-.61-2.82-.61-4.39v-28.42h-9.44v-5.1h9.44v-12.56h5.66v12.56h12.46v5.1Z"/>
      <path class="cls-1" d="M1258.6,374.12c1.19,2.33,2.96,4.11,5.29,5.33,2.33,1.23,4.78,1.84,7.36,1.84,1.2,0,2.39-.19,3.59-.57,1.19-.38,2.27-.91,3.21-1.6.94-.69,1.71-1.52,2.31-2.5.6-.98.9-2.09.9-3.35,0-2.01-.65-3.52-1.93-4.53-1.29-1.01-2.88-1.79-4.77-2.36-1.89-.57-3.97-1.05-6.23-1.46-2.27-.41-4.34-1.04-6.23-1.89-1.89-.85-3.48-2.03-4.77-3.54-1.29-1.51-1.94-3.65-1.94-6.42,0-2.14.44-4,1.32-5.57.88-1.57,2.03-2.88,3.45-3.92,1.42-1.04,3-1.81,4.77-2.31,1.76-.5,3.55-.75,5.38-.75,3.59,0,6.69.66,9.3,1.98,2.61,1.32,4.64,3.4,6.09,6.23l-5.1,3.02c-1.07-2.01-2.41-3.54-4.01-4.58-1.6-1.04-3.7-1.56-6.28-1.56-1.01,0-2.06.16-3.16.47-1.1.32-2.09.76-2.97,1.32-.88.57-1.62,1.29-2.22,2.17-.6.88-.9,1.89-.9,3.02,0,1.95.64,3.4,1.94,4.34,1.29.94,2.88,1.68,4.77,2.22,1.89.54,3.96.99,6.23,1.37,2.27.38,4.34.99,6.23,1.84,1.89.85,3.48,2.08,4.77,3.68,1.29,1.6,1.94,3.89,1.94,6.84,0,2.27-.42,4.23-1.27,5.9-.85,1.67-2.02,3.07-3.49,4.2-1.48,1.13-3.16,1.98-5.05,2.55-1.89.57-3.87.85-5.95.85-3.78,0-7.22-.72-10.34-2.17-3.12-1.45-5.52-3.68-7.22-6.7l5-3.4Z"/>
      <path class="cls-1" d="M1300.99,363.45c0-3.33.57-6.4,1.7-9.2,1.13-2.8,2.71-5.22,4.72-7.27,2.01-2.04,4.44-3.63,7.27-4.77s5.92-1.7,9.25-1.7,6.4.57,9.21,1.7c2.8,1.13,5.22,2.72,7.27,4.77,2.04,2.05,3.63,4.47,4.77,7.27,1.13,2.8,1.7,5.87,1.7,9.2s-.57,6.41-1.7,9.21c-1.13,2.8-2.72,5.23-4.77,7.27-2.05,2.05-4.47,3.63-7.27,4.77-2.8,1.13-5.87,1.7-9.21,1.7s-6.42-.57-9.25-1.7-5.26-2.72-7.27-4.77c-2.01-2.04-3.59-4.47-4.72-7.27-1.13-2.8-1.7-5.87-1.7-9.21ZM1306.65,363.45c0,2.45.39,4.77,1.18,6.94.79,2.17,1.94,4.06,3.45,5.66,1.51,1.6,3.33,2.88,5.48,3.82,2.14.94,4.53,1.42,7.17,1.42s5.04-.47,7.18-1.42c2.14-.94,3.96-2.22,5.48-3.82,1.51-1.6,2.66-3.49,3.45-5.66.79-2.17,1.18-4.48,1.18-6.94s-.39-4.77-1.18-6.94c-.79-2.17-1.94-4.06-3.45-5.66-1.51-1.6-3.34-2.88-5.48-3.82-2.14-.94-4.53-1.42-7.18-1.42s-5.04.47-7.17,1.42c-2.14.94-3.96,2.22-5.48,3.82s-2.66,3.49-3.45,5.66c-.79,2.17-1.18,4.48-1.18,6.94Z"/>
      <path class="cls-1" d="M1367.45,346.74h-9.06v-5.1h9.06v-14.26c0-2.83.42-5.18,1.27-7.03.85-1.86,1.9-3.35,3.16-4.48,1.26-1.13,2.66-1.94,4.2-2.41,1.54-.47,3-.71,4.39-.71,2.64,0,4.81.38,6.51,1.13l-1.13,4.91c-1.26-.63-2.96-.94-5.1-.94-5.1,0-7.65,3.87-7.65,11.61v12.18h10.2v5.1h-10.2v38.52h-5.66v-38.52Z"/>
      <path class="cls-1" d="M1418.24,346.74h-12.46v28.42c0,1.95.53,3.46,1.61,4.53,1.07,1.07,2.55,1.6,4.44,1.6,1.07,0,2.15-.14,3.26-.42,1.1-.28,2.16-.64,3.16-1.09l.47,5.1c-1.07.38-2.3.72-3.68,1.04-1.38.31-2.61.47-3.68.47-2.01,0-3.75-.3-5.19-.9-1.45-.6-2.61-1.4-3.49-2.41-.88-1.01-1.53-2.19-1.94-3.54-.41-1.35-.61-2.82-.61-4.39v-28.42h-9.44v-5.1h9.44v-12.56h5.66v12.56h12.46v5.1Z"/>
      <path class="cls-1" d="M1426.93,341.64h6.23l10.57,36.54h.19l12.18-36.54h5.38l12.93,36.54h.19l10.29-36.54h5.67l-12.84,43.62h-5.85l-13.03-35.69h-.19l-12.18,35.69h-5.85l-13.69-43.62Z"/>
      <path class="cls-1" d="M1538.14,366.94c0,2.14.01,4.06.05,5.76.03,1.7.08,3.27.14,4.72.06,1.45.14,2.8.24,4.06.09,1.26.24,2.52.42,3.78h-5.29c-.38-2.14-.57-4.5-.57-7.08h-.19c-1.64,2.83-3.67,4.91-6.09,6.23s-5.49,1.98-9.2,1.98c-1.89,0-3.75-.24-5.57-.71-1.83-.47-3.46-1.23-4.91-2.27-1.45-1.04-2.63-2.38-3.54-4.01-.91-1.64-1.37-3.62-1.37-5.95,0-3.33.85-5.98,2.55-7.93,1.7-1.95,3.79-3.41,6.28-4.39,2.49-.98,5.13-1.6,7.93-1.89,2.8-.28,5.27-.42,7.41-.42h6.61v-2.64c0-3.78-1.17-6.48-3.49-8.12-2.33-1.64-5.26-2.45-8.78-2.45-5.04,0-9.47,1.64-13.31,4.91l-3.3-3.87c2.08-2.01,4.66-3.54,7.74-4.58,3.08-1.04,6.04-1.56,8.87-1.56,5.29,0,9.5,1.24,12.65,3.73,3.15,2.49,4.72,6.5,4.72,12.04v10.67ZM1526.81,363.35c-2.39,0-4.71.16-6.94.47-2.24.32-4.25.85-6.04,1.6-1.79.76-3.23,1.76-4.29,3.02-1.07,1.26-1.61,2.83-1.61,4.72,0,1.32.3,2.5.9,3.54.6,1.04,1.37,1.89,2.31,2.55.94.66,2,1.17,3.16,1.51,1.16.35,2.34.52,3.54.52,3.02,0,5.51-.44,7.46-1.32,1.95-.88,3.51-2.03,4.67-3.45,1.16-1.42,1.97-3.02,2.41-4.81.44-1.79.66-3.6.66-5.43v-2.93h-6.23Z"/>
      <path class="cls-1" d="M1557.97,353.91c0-.82-.03-1.81-.09-2.97-.06-1.16-.11-2.34-.14-3.54-.03-1.19-.08-2.31-.14-3.35-.06-1.04-.09-1.84-.09-2.41h5.66c.06,1.64.11,3.21.14,4.72.03,1.51.11,2.49.24,2.93,1.45-2.58,3.3-4.69,5.57-6.33,2.27-1.64,5.03-2.45,8.31-2.45.57,0,1.12.05,1.65.14.53.09,1.08.21,1.65.33l-.66,5.57c-.76-.25-1.48-.38-2.17-.38-2.45,0-4.58.39-6.37,1.18-1.79.79-3.27,1.87-4.44,3.26-1.17,1.39-2.03,3.01-2.6,4.86-.57,1.86-.85,3.86-.85,6v23.79h-5.66v-31.34Z"/>
      <path class="cls-1" d="M1630.94,377.04c-2.2,3.34-4.93,5.73-8.17,7.17-3.24,1.45-6.81,2.17-10.72,2.17-3.34,0-6.36-.57-9.06-1.7s-5.04-2.72-6.99-4.77c-1.95-2.04-3.45-4.47-4.48-7.27-1.04-2.8-1.56-5.9-1.56-9.3s.53-6.29,1.61-9.06c1.07-2.77,2.58-5.18,4.53-7.22,1.95-2.04,4.25-3.65,6.89-4.81,2.64-1.16,5.57-1.75,8.78-1.75s6.28.58,8.83,1.75c2.55,1.17,4.69,2.71,6.42,4.63,1.73,1.92,3.04,4.11,3.92,6.56.88,2.46,1.32,4.94,1.32,7.46v3.97h-36.63c0,1.2.24,2.72.71,4.58.47,1.86,1.34,3.67,2.6,5.43,1.26,1.76,2.94,3.27,5.05,4.53,2.11,1.26,4.83,1.89,8.17,1.89,2.89,0,5.7-.69,8.4-2.08,2.71-1.38,4.78-3.27,6.23-5.66l4.15,3.49ZM1626.6,359.77c0-1.95-.39-3.78-1.18-5.48-.79-1.7-1.86-3.19-3.21-4.48-1.35-1.29-2.96-2.31-4.82-3.07-1.86-.76-3.82-1.13-5.9-1.13-3.08,0-5.65.63-7.69,1.89-2.05,1.26-3.67,2.71-4.86,4.34-1.2,1.64-2.05,3.23-2.55,4.77-.5,1.54-.75,2.6-.75,3.16h30.97Z"/>
      <path class="cls-1" d="M1679,374.12c1.19,2.33,2.96,4.11,5.29,5.33,2.33,1.23,4.78,1.84,7.36,1.84,1.2,0,2.39-.19,3.59-.57,1.19-.38,2.27-.91,3.21-1.6.94-.69,1.71-1.52,2.31-2.5.6-.98.9-2.09.9-3.35,0-2.01-.65-3.52-1.93-4.53-1.29-1.01-2.88-1.79-4.77-2.36-1.89-.57-3.97-1.05-6.23-1.46-2.27-.41-4.34-1.04-6.23-1.89-1.89-.85-3.48-2.03-4.77-3.54-1.29-1.51-1.94-3.65-1.94-6.42,0-2.14.44-4,1.32-5.57.88-1.57,2.03-2.88,3.45-3.92,1.42-1.04,3-1.81,4.77-2.31,1.76-.5,3.55-.75,5.38-.75,3.59,0,6.69.66,9.3,1.98,2.61,1.32,4.64,3.4,6.09,6.23l-5.1,3.02c-1.07-2.01-2.41-3.54-4.01-4.58-1.6-1.04-3.7-1.56-6.28-1.56-1.01,0-2.06.16-3.16.47-1.1.32-2.09.76-2.97,1.32-.88.57-1.62,1.29-2.22,2.17-.6.88-.9,1.89-.9,3.02,0,1.95.64,3.4,1.94,4.34,1.29.94,2.88,1.68,4.77,2.22,1.89.54,3.96.99,6.23,1.37,2.27.38,4.34.99,6.23,1.84,1.89.85,3.48,2.08,4.77,3.68,1.29,1.6,1.94,3.89,1.94,6.84,0,2.27-.42,4.23-1.27,5.9-.85,1.67-2.02,3.07-3.49,4.2-1.48,1.13-3.16,1.98-5.05,2.55-1.89.57-3.87.85-5.95.85-3.78,0-7.22-.72-10.34-2.17-3.12-1.45-5.52-3.68-7.22-6.7l5-3.4Z"/>
      <path class="cls-1" d="M1721.39,363.45c0-3.33.57-6.4,1.7-9.2,1.13-2.8,2.71-5.22,4.72-7.27,2.01-2.04,4.44-3.63,7.27-4.77s5.92-1.7,9.25-1.7,6.4.57,9.21,1.7c2.8,1.13,5.22,2.72,7.27,4.77,2.04,2.05,3.63,4.47,4.77,7.27,1.13,2.8,1.7,5.87,1.7,9.2s-.57,6.41-1.7,9.21c-1.13,2.8-2.72,5.23-4.77,7.27-2.05,2.05-4.47,3.63-7.27,4.77-2.8,1.13-5.87,1.7-9.21,1.7s-6.42-.57-9.25-1.7-5.26-2.72-7.27-4.77c-2.01-2.04-3.59-4.47-4.72-7.27-1.13-2.8-1.7-5.87-1.7-9.21ZM1727.05,363.45c0,2.45.39,4.77,1.18,6.94.79,2.17,1.94,4.06,3.45,5.66,1.51,1.6,3.33,2.88,5.48,3.82,2.14.94,4.53,1.42,7.17,1.42s5.04-.47,7.18-1.42c2.14-.94,3.96-2.22,5.48-3.82,1.51-1.6,2.66-3.49,3.45-5.66.79-2.17,1.18-4.48,1.18-6.94s-.39-4.77-1.18-6.94c-.79-2.17-1.94-4.06-3.45-5.66-1.51-1.6-3.34-2.88-5.48-3.82-2.14-.94-4.53-1.42-7.18-1.42s-5.04.47-7.17,1.42c-2.14.94-3.96,2.22-5.48,3.82s-2.66,3.49-3.45,5.66c-.79,2.17-1.18,4.48-1.18,6.94Z"/>
      <path class="cls-1" d="M1785.59,313.88h5.66v71.37h-5.66v-71.37Z"/>
      <path class="cls-1" d="M1848.93,372.98c0,.82.03,1.81.09,2.97.06,1.17.11,2.35.14,3.54.03,1.2.08,2.31.14,3.35.06,1.04.09,1.84.09,2.41h-5.66c-.06-1.64-.11-3.21-.14-4.72-.03-1.51-.11-2.49-.24-2.93h-.28c-1.13,2.39-3.02,4.45-5.67,6.18s-5.73,2.6-9.25,2.6-6.18-.54-8.35-1.6c-2.17-1.07-3.87-2.47-5.1-4.2-1.23-1.73-2.06-3.73-2.5-5.99-.44-2.27-.66-4.59-.66-6.99v-25.96h5.66v25.68c0,1.76.16,3.48.47,5.15.31,1.67.87,3.16,1.65,4.48.79,1.32,1.89,2.38,3.3,3.16,1.42.79,3.26,1.18,5.52,1.18,2.08,0,4.04-.36,5.9-1.09,1.86-.72,3.46-1.82,4.82-3.3,1.35-1.48,2.42-3.34,3.21-5.57.79-2.23,1.18-4.86,1.18-7.88v-21.81h5.67v31.34Z"/>
      <path class="cls-1" d="M1890.57,346.74h-12.46v28.42c0,1.95.53,3.46,1.61,4.53,1.07,1.07,2.55,1.6,4.44,1.6,1.07,0,2.15-.14,3.26-.42,1.1-.28,2.16-.64,3.16-1.09l.47,5.1c-1.07.38-2.3.72-3.68,1.04-1.38.31-2.61.47-3.68.47-2.01,0-3.75-.3-5.19-.9-1.45-.6-2.61-1.4-3.49-2.41-.88-1.01-1.53-2.19-1.94-3.54-.41-1.35-.61-2.82-.61-4.39v-28.42h-9.44v-5.1h9.44v-12.56h5.66v12.56h12.46v5.1Z"/>
      <path class="cls-1" d="M1905.01,324.36c0-1.19.41-2.2,1.23-3.02.82-.82,1.83-1.23,3.02-1.23s2.2.41,3.02,1.23c.82.82,1.23,1.83,1.23,3.02s-.41,2.2-1.23,3.02c-.82.82-1.83,1.23-3.02,1.23s-2.2-.41-3.02-1.23c-.82-.82-1.23-1.82-1.23-3.02ZM1906.43,341.64h5.66v43.62h-5.66v-43.62Z"/>
      <path class="cls-1" d="M1930.41,363.45c0-3.33.57-6.4,1.7-9.2,1.13-2.8,2.71-5.22,4.72-7.27,2.01-2.04,4.44-3.63,7.27-4.77s5.92-1.7,9.25-1.7,6.4.57,9.21,1.7c2.8,1.13,5.22,2.72,7.27,4.77,2.04,2.05,3.63,4.47,4.77,7.27,1.13,2.8,1.7,5.87,1.7,9.2s-.57,6.41-1.7,9.21c-1.13,2.8-2.72,5.23-4.77,7.27-2.05,2.05-4.47,3.63-7.27,4.77-2.8,1.13-5.87,1.7-9.21,1.7s-6.42-.57-9.25-1.7-5.26-2.72-7.27-4.77c-2.01-2.04-3.59-4.47-4.72-7.27-1.13-2.8-1.7-5.87-1.7-9.21ZM1936.07,363.45c0,2.45.39,4.77,1.18,6.94.79,2.17,1.94,4.06,3.45,5.66,1.51,1.6,3.33,2.88,5.48,3.82,2.14.94,4.53,1.42,7.17,1.42s5.04-.47,7.18-1.42c2.14-.94,3.96-2.22,5.48-3.82,1.51-1.6,2.66-3.49,3.45-5.66.79-2.17,1.18-4.48,1.18-6.94s-.39-4.77-1.18-6.94c-.79-2.17-1.94-4.06-3.45-5.66-1.51-1.6-3.34-2.88-5.48-3.82-2.14-.94-4.53-1.42-7.18-1.42s-5.04.47-7.17,1.42c-2.14.94-3.96,2.22-5.48,3.82s-2.66,3.49-3.45,5.66c-.79,2.17-1.18,4.48-1.18,6.94Z"/>
      <path class="cls-1" d="M1993.66,353.91c0-.82-.03-1.81-.09-2.97-.06-1.16-.11-2.34-.14-3.54-.03-1.19-.08-2.31-.14-3.35-.06-1.04-.09-1.84-.09-2.41h5.66c.06,1.64.11,3.21.14,4.72.03,1.51.11,2.49.24,2.93h.28c1.13-2.39,3.02-4.45,5.66-6.18,2.64-1.73,5.73-2.6,9.25-2.6s6.17.54,8.31,1.6c2.14,1.07,3.82,2.47,5.05,4.2,1.23,1.73,2.08,3.73,2.55,5.99.47,2.27.71,4.6.71,6.99v25.96h-5.66v-25.68c0-1.76-.16-3.48-.47-5.15-.32-1.67-.87-3.16-1.65-4.48-.79-1.32-1.89-2.38-3.3-3.16-1.42-.79-3.26-1.18-5.52-1.18-2.08,0-4.04.36-5.9,1.09-1.86.72-3.46,1.83-4.81,3.3-1.35,1.48-2.42,3.34-3.21,5.57-.79,2.23-1.18,4.86-1.18,7.88v21.81h-5.66v-31.34Z"/>
      <path class="cls-1" d="M2050.97,374.12c1.19,2.33,2.96,4.11,5.29,5.33,2.33,1.23,4.78,1.84,7.36,1.84,1.2,0,2.39-.19,3.59-.57,1.19-.38,2.27-.91,3.21-1.6.94-.69,1.71-1.52,2.31-2.5.6-.98.9-2.09.9-3.35,0-2.01-.65-3.52-1.93-4.53-1.29-1.01-2.88-1.79-4.77-2.36-1.89-.57-3.97-1.05-6.23-1.46-2.27-.41-4.34-1.04-6.23-1.89-1.89-.85-3.48-2.03-4.77-3.54-1.29-1.51-1.94-3.65-1.94-6.42,0-2.14.44-4,1.32-5.57.88-1.57,2.03-2.88,3.45-3.92,1.42-1.04,3-1.81,4.77-2.31,1.76-.5,3.55-.75,5.38-.75,3.59,0,6.69.66,9.3,1.98,2.61,1.32,4.64,3.4,6.09,6.23l-5.1,3.02c-1.07-2.01-2.41-3.54-4.01-4.58-1.6-1.04-3.7-1.56-6.28-1.56-1.01,0-2.06.16-3.16.47-1.1.32-2.09.76-2.97,1.32-.88.57-1.62,1.29-2.22,2.17-.6.88-.9,1.89-.9,3.02,0,1.95.64,3.4,1.94,4.34,1.29.94,2.88,1.68,4.77,2.22,1.89.54,3.96.99,6.23,1.37,2.27.38,4.34.99,6.23,1.84,1.89.85,3.48,2.08,4.77,3.68,1.29,1.6,1.94,3.89,1.94,6.84,0,2.27-.42,4.23-1.27,5.9-.85,1.67-2.02,3.07-3.49,4.2-1.48,1.13-3.16,1.98-5.05,2.55-1.89.57-3.87.85-5.95.85-3.78,0-7.22-.72-10.34-2.17-3.12-1.45-5.52-3.68-7.22-6.7l5-3.4Z"/>
    </g>
  </g>
</svg>