<?xml version="1.0" encoding="UTF-8"?>
<svg id="Layer_1" data-name="Layer 1" xmlns="http://www.w3.org/2000/svg" viewBox="0 0 1179 430.88">
  <defs>
    <style>
      .cls-1 {
        fill: #ea184a;
      }
    </style>
  </defs>
  <g>
    <path class="cls-1" d="M584.95,323.39c.57,0,.96.38.96.89l-.7,6.18c-.06.51-.45.96-.96.96h-3.69v26.11c0,.57-.32.89-.89.89h-11.33c-.57,0-.89-.32-.89-.89v-26.11h-3.37c-.45,0-.89-.38-.89-.89v-6.18c0-.57.45-.96.89-.96h3.5c.32-7.58,4.08-11.14,11.59-11.14h5.54c.57,0,.89.32.89.89v6.18c0,.57-.32.96-.89.96-2.42,0-3.76.96-4.08,3.12h4.33Z"/>
    <path class="cls-1" d="M612.84,323.39c.51,0,.89.38.89.89v8.28c0,.51-.38.89-.89.89h-1.66c-2.42,0-4.58,1.08-5.41,2.67v21.33c0,.51-.45.96-.96.96h-11.21c-.51,0-.96-.45-.96-.96v-33.11c0-.45.45-.89.96-.89h7.2c.51,0,.83.45,1.02.96l.96,2.8c1.91-2.36,5.03-3.82,8.4-3.82h1.66Z"/>
    <path class="cls-1" d="M650.6,354.84c.13.45,0,.7-.45.96-3.37,2.23-8.28,3.57-13.18,3.57-11.27,0-18.78-7.39-18.78-18.4s7.39-18.47,18.47-18.47,16.81,6.81,16.81,18.4c0,.96-.06,1.91-.25,2.87-.06.51-.38.76-.96.76h-20.44s0,4.01,5.35,4.01c3.25,0,6.88-.76,9.74-2.1.45-.19.83.06.96.51l2.74,7.9ZM640.79,337.84c0-2.8-1.72-4.65-4.27-4.65-2.87,0-4.78,1.85-4.78,4.65h9.04Z"/>
    <path class="cls-1" d="M664.03,347.33c.13-.38.51-.45.83-.25,2.48,1.46,5.16,2.61,7.32,2.61,1.34.13,2.23-.64,2.23-1.59,0-3.25-13.95-2.23-13.95-14.2,0-6.81,5.79-11.4,14.46-11.4,4.14,0,9.11,1.46,12.48,3.63.32.25.51.57.38.89l-3.25,7.51c-.13.38-.51.45-.83.25-2.48-1.59-5.16-2.61-7.32-2.61-1.34-.13-2.23.51-2.23,1.53,0,3.38,13.94,2.17,13.94,14.26,0,6.81-5.6,11.4-14.07,11.4-4.14,0-9.3-1.46-12.86-3.63-.32-.32-.51-.64-.38-1.02l3.25-7.39Z"/>
    <path class="cls-1" d="M708.29,312.25c.51,0,.96.45.96.96v12.86c1.72-2.23,4.78-3.57,8.21-3.57,7.64,0,12.16,4.33,12.16,11.72v23.24c0,.51-.45.96-.96.96h-11.21c-.51,0-.96-.45-.89-.96v-19.99c0-2.55-1.15-4.01-3.12-4.01-3.63,0-4.2,3.57-4.2,3.57v20.44c0,.51-.45.96-.96.96h-11.21c-.51,0-.96-.45-.96-.96v-44.25c0-.51.45-.96.96-.96h11.21Z"/>
    <path class="cls-1" d="M743.05,359.3c-3.38,0-5.6-2.1-5.6-5.22s2.23-5.35,5.6-5.35,5.6,2.17,5.6,5.35-2.23,5.22-5.6,5.22Z"/>
    <path class="cls-1" d="M789.73,323.39c.57,0,.96.38.96.89l-.7,6.18c-.06.51-.45.96-.96.96h-3.69v26.11c0,.57-.32.89-.89.89h-11.33c-.57,0-.89-.32-.89-.89v-26.11h-3.38c-.45,0-.89-.38-.89-.89v-6.18c0-.57.45-.96.89-.96h3.5c.32-7.58,4.08-11.14,11.59-11.14h5.54c.57,0,.89.32.89.89v6.18c0,.57-.32.96-.89.96-2.42,0-3.76.96-4.08,3.12h4.33Z"/>
    <path class="cls-1" d="M799.66,327.34c-.19-.45-.06-.89.32-1.21,3.63-2.29,8.72-3.63,13.82-3.63,11.02,0,16.11,5.79,16.11,18.47v16.49c0,.51-.45.96-.96.96h-8.02c-.51,0-1.02-.45-1.02-.96l-.45-1.72c-2.1,2.23-6.3,3.63-10.95,3.63-7.32,0-12.16-4.71-12.1-11.72.06-6.24,4.9-10.38,12.1-10.38,3.69,0,7,1.34,8.28,3.37v-2.67c0-2.74-1.97-4.52-4.9-4.52-2.48,0-5.54.83-7.64,2.04-.32.19-.7-.06-.96-.51l-3.63-7.64ZM816.79,346.95c-1.08-1.08-2.17-1.59-3.5-1.59-1.59,0-2.67.89-2.67,2.29s1.08,2.29,2.67,2.29c1.34,0,2.42-.51,3.5-1.59v-1.4Z"/>
    <path class="cls-1" d="M841.5,347.33c.13-.38.51-.45.83-.25,2.48,1.46,5.16,2.61,7.32,2.61,1.34.13,2.23-.64,2.23-1.59,0-3.25-13.95-2.23-13.95-14.2,0-6.81,5.79-11.4,14.45-11.4,4.14,0,9.11,1.46,12.48,3.63.32.25.51.57.38.89l-3.25,7.51c-.13.38-.51.45-.83.25-2.48-1.59-5.16-2.61-7.32-2.61-1.34-.13-2.23.51-2.23,1.53,0,3.38,13.95,2.17,13.95,14.26,0,6.81-5.6,11.4-14.07,11.4-4.14,0-9.3-1.46-12.86-3.63-.32-.32-.51-.64-.38-1.02l3.25-7.39Z"/>
    <path class="cls-1" d="M894.35,323.39c.57,0,.96.38.96.89l-.7,6.18c-.06.51-.45.96-.96.96h-4.08v26.04c0,.51-.45.96-.96.96h-11.21c-.51,0-.96-.45-.96-.96v-26.04h-3.63c-.45,0-.89-.38-.89-.89v-6.18c0-.57.45-.96.89-.96h3.63v-6.94c0-.45.45-.83.96-.89l11.21-1.08c.51-.06.96.45.96.89v8.02h4.78Z"/>
    <path class="cls-1" d="M907.47,359.3c-3.37,0-5.6-2.1-5.6-5.22s2.23-5.35,5.6-5.35,5.6,2.17,5.6,5.35-2.23,5.22-5.6,5.22Z"/>
    <path class="cls-1" d="M946.18,312.25c.51,0,.96.45.96.89v44.32c0,.51-.45.96-.96.96h-11.21c-.51,0-.96-.45-.96-.96v-44.32c0-.45.45-.89.96-.89h11.21Z"/>
    <path class="cls-1" d="M992.6,340.9c0,11.08-7.51,18.47-18.72,18.47s-18.72-7.39-18.72-18.4,7.51-18.47,18.72-18.47,18.72,7.39,18.72,18.4ZM967.58,340.96c0,4.14,2.55,6.94,6.3,6.94s6.3-2.8,6.3-7-2.55-6.94-6.3-6.94-6.3,2.8-6.3,7Z"/>
    <path class="cls-1" d="M1030.93,354.72c.19.32,0,.76-.38,1.08-3.44,2.17-8.15,3.63-11.78,3.63-11.52,0-19.17-7.39-19.17-18.47s7.64-18.47,19.17-18.47c3.63,0,8.34,1.46,11.78,3.63.38.32.57.76.38,1.08l-3.69,7.77c-.25.51-.7.7-1.15.38-1.59-1.15-4.01-1.91-6.11-1.91-4.65,0-7.71,2.99-7.71,7.51s3.06,7.51,7.71,7.51c2.1,0,4.52-.76,6.11-1.91.45-.32.89-.13,1.15.38l3.69,7.77Z"/>
    <path class="cls-1" d="M1041.25,327.34c-.19-.45-.06-.89.32-1.21,3.63-2.29,8.72-3.63,13.82-3.63,11.02,0,16.11,5.79,16.11,18.47v16.49c0,.51-.45.96-.96.96h-8.02c-.51,0-1.02-.45-1.02-.96l-.45-1.72c-2.1,2.23-6.3,3.63-10.95,3.63-7.32,0-12.16-4.71-12.1-11.72.06-6.24,4.9-10.38,12.1-10.38,3.69,0,7,1.34,8.28,3.37v-2.67c0-2.74-1.97-4.52-4.9-4.52-2.48,0-5.54.83-7.64,2.04-.32.19-.7-.06-.96-.51l-3.63-7.64ZM1058.38,346.95c-1.08-1.08-2.17-1.59-3.5-1.59-1.59,0-2.67.89-2.67,2.29s1.08,2.29,2.67,2.29c1.34,0,2.42-.51,3.5-1.59v-1.4Z"/>
    <path class="cls-1" d="M1092.7,312.25c.51,0,.96.45.96.89v44.32c0,.51-.45.96-.96.96h-11.21c-.51,0-.96-.45-.96-.96v-44.32c0-.45.45-.89.96-.89h11.21Z"/>
    <path class="cls-1" d="M1107.47,359.3c-3.38,0-5.6-2.1-5.6-5.22s2.23-5.35,5.6-5.35,5.6,2.17,5.6,5.35-2.23,5.22-5.6,5.22Z"/>
  </g>
  <g>
    <path class="cls-1" d="M350.11,79.58c0-.26,0-.52.01-.78-11.37-4.89-23.91-7.34-36.99-7.34-49.58,0-92.69,34.33-92.69,103.76,0,65.61,37.76,98.42,90.78,98.42s92.69-32.43,92.69-99.18c0-17.83-2.83-33.36-7.9-46.59-25.77-2.43-45.9-23.12-45.9-48.28ZM314.13,213.43c-22.72,0-27.51-29.29-27.51-52.01,0-26.7,11.93-35.2,25.56-35.2,14.77,0,25.56,11.91,25.56,52.81,0,24.43-7.71,34.4-23.62,34.4Z"/>
    <g>
      <path class="cls-1" d="M183.01,223.96c2.08,0,3.87,1.79,3.87,4.17l-4.17,45.28c-.3,2.09-2.38,4.17-4.77,4.17h-107.55c-2.38,0-4.47-2.08-4.47-4.17V76.49c0-2.38,2.09-4.47,4.47-4.47h52.73c2.38,0,4.47,2.08,4.47,4.47v147.47h55.41Z"/>
      <path class="cls-1" d="M622.12,274.01c1.49,2.09.3,3.58-2.09,3.58h-69.12c-2.09,0-5.06-1.49-6.26-3.58l-36.94-74.48v73.88c0,2.09-1.79,4.17-4.47,4.17h-52.73c-2.09,0-4.17-2.08-4.17-4.17V76.49c0-2.38,2.08-4.47,4.17-4.47h52.73c2.68,0,4.47,2.08,4.47,4.47v66.73l35.75-67.63c1.19-2.09,4.17-3.58,6.85-3.58h65.24c2.38,0,3.28,1.49,2.09,3.58l-58.99,94.44,63.46,103.97Z"/>
      <path class="cls-1" d="M874.45,72.02c2.38,0,4.17,2.08,4.17,4.47v196.92c0,2.09-1.79,4.17-4.17,4.17h-55.11c-2.38,0-4.47-2.08-4.47-4.17v-87.59l-30.09,87.29c-.89,2.38-4.77,4.47-7.45,4.47h-32.77c-2.68,0-6.55-2.08-7.45-4.47l-30.09-87.29v87.59c0,2.09-2.09,4.17-4.47,4.17h-55.11c-2.38,0-4.17-2.08-4.17-4.17V76.49c0-2.38,1.79-4.47,4.17-4.47h62.26c3.87,0,8.34,2.68,10.13,5.96l41.11,113.8,41.11-113.8c1.79-3.28,6.26-5.96,10.13-5.96h62.26Z"/>
      <path class="cls-1" d="M1104.13,273.71c.89,1.79-.3,3.87-2.68,3.87h-58.99c-2.68,0-5.06-1.49-6.26-3.87l-8.94-31.28h-56.01l-8.94,31.28c-1.19,2.38-3.58,3.87-6.26,3.87h-58.99c-2.38,0-3.58-2.08-2.68-3.87l67.33-197.81c.89-1.79,4.17-3.87,7.15-3.87h60.77c2.98,0,6.26,2.08,7.15,3.87l67.33,197.81ZM999.27,143.23l-16.09,56.6h32.17l-16.09-56.6Z"/>
    </g>
  </g>
</svg>